<mxfile host="Electron" agent="Mozilla/5.0 (Macintosh; Intel Mac OS X 10_15_7) AppleWebKit/537.36 (KHTML, like Gecko) draw.io/26.0.16 Chrome/132.0.6834.196 Electron/34.2.0 Safari/537.36" version="26.0.16">
  <diagram id="C5RBs43oDa-KdzZeNtuy" name="Page-1">
    <mxGraphModel dx="3457" dy="1102" grid="1" gridSize="10" guides="1" tooltips="1" connect="1" arrows="1" fold="1" page="1" pageScale="1" pageWidth="827" pageHeight="1169" math="0" shadow="0">
      <root>
        <mxCell id="WIyWlLk6GJQsqaUBKTNV-0" />
        <mxCell id="WIyWlLk6GJQsqaUBKTNV-1" parent="WIyWlLk6GJQsqaUBKTNV-0" />
        <mxCell id="R53OEbEXbrlHRiHu95DK-1" value="&lt;p style=&quot;margin:0px;margin-top:4px;text-align:center;&quot;&gt;&lt;i&gt;&amp;lt;&amp;lt;Interface&amp;gt;&amp;gt;&lt;/i&gt;&lt;/p&gt;&lt;p style=&quot;margin:0px;margin-top:4px;text-align:center;&quot;&gt;&lt;b&gt;IKmoniSettingsHelper&lt;/b&gt;&lt;/p&gt;&lt;hr size=&quot;1&quot; style=&quot;border-style:solid;&quot;&gt;&lt;p style=&quot;margin:0px;margin-left:4px;&quot;&gt;+ MeasurementChoice: MeasurementChoice&lt;/p&gt;&lt;p style=&quot;margin:0px;margin-left:4px;&quot;&gt;+ SensorChoice: SensorChoice&lt;/p&gt;&lt;p style=&quot;margin:0px;margin-left:4px;&quot;&gt;+ KmoniSettingsChanged: EventHandler&amp;lt;KmoniSettingsChangedEventArgs&amp;gt;?&lt;/p&gt;&lt;hr size=&quot;1&quot; style=&quot;border-style:solid;&quot;&gt;&lt;p style=&quot;margin:0px;margin-left:4px;&quot;&gt;&lt;br&gt;&lt;/p&gt;" style="verticalAlign=top;align=left;overflow=fill;html=1;whiteSpace=wrap;fontFamily=Courier New;" parent="WIyWlLk6GJQsqaUBKTNV-1" vertex="1">
          <mxGeometry x="-1620" y="20" width="330" height="120" as="geometry" />
        </mxCell>
        <mxCell id="R53OEbEXbrlHRiHu95DK-8" value="&lt;p style=&quot;margin:0px;margin-top:4px;text-align:center;&quot;&gt;&lt;b style=&quot;background-color: transparent; color: light-dark(rgb(0, 0, 0), rgb(255, 255, 255));&quot;&gt;KmoniSettingsHelper&lt;/b&gt;&lt;/p&gt;&lt;hr size=&quot;1&quot; style=&quot;border-style:solid;&quot;&gt;&lt;p style=&quot;margin:0px;margin-left:4px;&quot;&gt;- _logger&lt;span style=&quot;background-color: transparent; color: light-dark(rgb(0, 0, 0), rgb(255, 255, 255));&quot;&gt;&amp;nbsp;: ILogger&amp;lt;KmonisettingsHelper&amp;gt;&lt;/span&gt;&lt;/p&gt;&lt;p style=&quot;margin:0px;margin-left:4px;&quot;&gt;&lt;span style=&quot;background-color: transparent; color: light-dark(rgb(0, 0, 0), rgb(255, 255, 255));&quot;&gt;- _settings: KmoniSettings&lt;/span&gt;&lt;/p&gt;&lt;p style=&quot;margin:0px;margin-left:4px;&quot;&gt;&lt;span style=&quot;background-color: transparent; color: light-dark(rgb(0, 0, 0), rgb(255, 255, 255));&quot;&gt;&lt;br&gt;&lt;/span&gt;&lt;/p&gt;&lt;p style=&quot;margin: 0px 0px 0px 4px;&quot;&gt;+ MeasurementChoice: MeasurementChoice&lt;/p&gt;&lt;p style=&quot;margin: 0px 0px 0px 4px;&quot;&gt;+ SensorChoice: SensorChoice&lt;/p&gt;&lt;p style=&quot;margin: 0px 0px 0px 4px;&quot;&gt;+ KmoniSettingsChanged: EventHandler&amp;lt;KmoniSettingsChangedEventArgs&amp;gt;?&lt;/p&gt;&lt;hr size=&quot;1&quot; style=&quot;border-style:solid;&quot;&gt;&lt;p style=&quot;margin: 0px 0px 0px 4px;&quot;&gt;+ KmoniSettingsHelper(KmoniSettings,&lt;/p&gt;&lt;p style=&quot;margin: 0px 0px 0px 4px;&quot;&gt;&amp;nbsp; &amp;nbsp; ILogger&amp;lt;KmoniSettingsHelper&amp;gt;): None&lt;/p&gt;" style="verticalAlign=top;align=left;overflow=fill;html=1;whiteSpace=wrap;fontFamily=Courier New;" parent="WIyWlLk6GJQsqaUBKTNV-1" vertex="1">
          <mxGeometry x="-1620" y="180" width="330" height="180" as="geometry" />
        </mxCell>
        <mxCell id="m0jXe5smIOekXSRGqBHZ-0" value="&lt;p style=&quot;margin:0px;margin-top:4px;text-align:center;&quot;&gt;&lt;b style=&quot;background-color: transparent; color: light-dark(rgb(0, 0, 0), rgb(255, 255, 255));&quot;&gt;KmoniSettingsChangedEventArgs&lt;/b&gt;&lt;/p&gt;&lt;hr size=&quot;1&quot; style=&quot;border-style:solid;&quot;&gt;&lt;p style=&quot;margin:0px;margin-left:4px;&quot;&gt;+ KmoniSettings: KmoniSettings&lt;br&gt;&lt;/p&gt;&lt;hr size=&quot;1&quot; style=&quot;border-style:solid;&quot;&gt;&lt;p style=&quot;margin:0px;margin-left:4px;&quot;&gt;&lt;br&gt;&lt;/p&gt;" style="verticalAlign=top;align=left;overflow=fill;html=1;whiteSpace=wrap;fontFamily=Courier New;" vertex="1" parent="WIyWlLk6GJQsqaUBKTNV-1">
          <mxGeometry x="-1160" y="70" width="240" height="60" as="geometry" />
        </mxCell>
        <mxCell id="m0jXe5smIOekXSRGqBHZ-1" value="&lt;p style=&quot;margin:0px;margin-top:4px;text-align:center;&quot;&gt;&lt;b style=&quot;background-color: transparent; color: light-dark(rgb(0, 0, 0), rgb(255, 255, 255));&quot;&gt;EventArgs&lt;/b&gt;&lt;/p&gt;&lt;p style=&quot;margin:0px;margin-left:4px;&quot;&gt;&lt;br&gt;&lt;/p&gt;" style="verticalAlign=top;align=left;overflow=fill;html=1;whiteSpace=wrap;fontFamily=Courier New;" vertex="1" parent="WIyWlLk6GJQsqaUBKTNV-1">
          <mxGeometry x="-1080" y="20" width="80" height="20" as="geometry" />
        </mxCell>
        <mxCell id="m0jXe5smIOekXSRGqBHZ-2" value="&lt;p style=&quot;margin:0px;margin-top:4px;text-align:center;&quot;&gt;&lt;i&gt;&amp;lt;&amp;lt;Record Class&amp;gt;&amp;gt;&lt;/i&gt;&lt;/p&gt;&lt;p style=&quot;margin:0px;margin-top:4px;text-align:center;&quot;&gt;&lt;b&gt;KmoniSettings&lt;/b&gt;&lt;/p&gt;&lt;hr size=&quot;1&quot; style=&quot;border-style:solid;&quot;&gt;&lt;p style=&quot;margin:0px;margin-left:4px;&quot;&gt;+ SensorType: SensorChoice&lt;br&gt;&lt;/p&gt;&lt;p style=&quot;margin:0px;margin-left:4px;&quot;&gt;+ MeasurementType: MeasurementChoice&lt;/p&gt;&lt;hr size=&quot;1&quot; style=&quot;border-style:solid;&quot;&gt;&lt;p style=&quot;margin:0px;margin-left:4px;&quot;&gt;&lt;br&gt;&lt;/p&gt;" style="verticalAlign=top;align=left;overflow=fill;html=1;whiteSpace=wrap;fontFamily=Courier New;" vertex="1" parent="WIyWlLk6GJQsqaUBKTNV-1">
          <mxGeometry x="-1180" y="222.5" width="280" height="95" as="geometry" />
        </mxCell>
        <mxCell id="m0jXe5smIOekXSRGqBHZ-3" value="&lt;p style=&quot;margin:0px;margin-top:4px;text-align:center;&quot;&gt;&lt;i&gt;&amp;lt;&amp;lt;Record Class&amp;gt;&amp;gt;&lt;/i&gt;&lt;/p&gt;&lt;p style=&quot;margin:0px;margin-top:4px;text-align:center;&quot;&gt;&lt;b&gt;KmoniSettingsHelperOptions&lt;/b&gt;&lt;/p&gt;&lt;hr size=&quot;1&quot; style=&quot;border-style:solid;&quot;&gt;&lt;p style=&quot;margin:0px;margin-left:4px;&quot;&gt;+ FilePath: string&lt;/p&gt;&lt;p style=&quot;margin:0px;margin-left:4px;&quot;&gt;+ Default: KmoniSettings&lt;/p&gt;&lt;hr size=&quot;1&quot; style=&quot;border-style:solid;&quot;&gt;&lt;p style=&quot;margin:0px;margin-left:4px;&quot;&gt;&lt;br&gt;&lt;/p&gt;" style="verticalAlign=top;align=left;overflow=fill;html=1;whiteSpace=wrap;fontFamily=Courier New;" vertex="1" parent="WIyWlLk6GJQsqaUBKTNV-1">
          <mxGeometry x="-1165" y="340" width="270" height="95" as="geometry" />
        </mxCell>
        <mxCell id="m0jXe5smIOekXSRGqBHZ-4" value="&lt;p style=&quot;margin:0px;margin-top:4px;text-align:center;&quot;&gt;&lt;b style=&quot;background-color: transparent; color: light-dark(rgb(0, 0, 0), rgb(255, 255, 255));&quot;&gt;KmoniSettingsHelperServiceCollectionExtensions&lt;/b&gt;&lt;/p&gt;&lt;hr size=&quot;1&quot; style=&quot;border-style:solid;&quot;&gt;&lt;p style=&quot;margin:0px;margin-left:4px;&quot;&gt;&lt;br&gt;&lt;/p&gt;&lt;hr size=&quot;1&quot; style=&quot;border-style:solid;&quot;&gt;&lt;p style=&quot;margin:0px;margin-left:4px;&quot;&gt;+ AddKmoniOptionsHelper(IServiceCollection)&lt;/p&gt;&lt;p style=&quot;margin:0px;margin-left:4px;&quot;&gt;&amp;nbsp; &amp;nbsp; : IServiceCollection&lt;/p&gt;" style="verticalAlign=top;align=left;overflow=fill;html=1;whiteSpace=wrap;fontFamily=Courier New;" vertex="1" parent="WIyWlLk6GJQsqaUBKTNV-1">
          <mxGeometry x="-1200" y="470" width="340" height="90" as="geometry" />
        </mxCell>
        <mxCell id="m0jXe5smIOekXSRGqBHZ-5" value="&lt;p style=&quot;margin:0px;margin-top:4px;text-align:center;&quot;&gt;&lt;b style=&quot;background-color: transparent; color: light-dark(rgb(0, 0, 0), rgb(255, 255, 255));&quot;&gt;KmoniSettingsHelperLogs&lt;/b&gt;&lt;/p&gt;&lt;hr size=&quot;1&quot; style=&quot;border-style:solid;&quot;&gt;&lt;p style=&quot;margin:0px;margin-left:4px;&quot;&gt;&lt;br&gt;&lt;/p&gt;&lt;hr size=&quot;1&quot; style=&quot;border-style:solid;&quot;&gt;&lt;p style=&quot;margin:0px;margin-left:4px;&quot;&gt;+ Instantiated(ILogger&amp;lt;KmoniSettingsHelper&amp;gt;): None&lt;/p&gt;&lt;p style=&quot;margin:0px;margin-left:4px;&quot;&gt;+ IOFailed(ILogger&amp;lt;KmoniSettingsHelper&amp;gt;,&lt;/p&gt;&lt;p style=&quot;margin:0px;margin-left:4px;&quot;&gt;&amp;nbsp; &amp;nbsp; string): None&lt;/p&gt;&lt;p style=&quot;margin:0px;margin-left:4px;&quot;&gt;+ IOSucceeded(ILogger&amp;lt;KmoniSettingsHelper&amp;gt;): None&lt;/p&gt;&lt;p style=&quot;margin:0px;margin-left:4px;&quot;&gt;+ SensorChoiceChanged(ILogger&amp;lt;KmoniSettingsHelper&amp;gt;,&lt;/p&gt;&lt;p style=&quot;margin:0px;margin-left:4px;&quot;&gt;&amp;nbsp; &amp;nbsp; SensorType): None&lt;/p&gt;&lt;p style=&quot;margin:0px;margin-left:4px;&quot;&gt;+ MeasurementChoiceChanged(ILogger&amp;lt;KmoniSettingsHelper&amp;gt;,&lt;/p&gt;&lt;p style=&quot;margin:0px;margin-left:4px;&quot;&gt;&amp;nbsp; &amp;nbsp; MeasurementType): None&lt;/p&gt;" style="verticalAlign=top;align=left;overflow=fill;html=1;whiteSpace=wrap;fontFamily=Courier New;" vertex="1" parent="WIyWlLk6GJQsqaUBKTNV-1">
          <mxGeometry x="-1620" y="400" width="410" height="180" as="geometry" />
        </mxCell>
        <mxCell id="m0jXe5smIOekXSRGqBHZ-6" value="" style="endArrow=block;dashed=1;endFill=0;endSize=12;html=1;rounded=0;entryX=0.5;entryY=1;entryDx=0;entryDy=0;exitX=0.5;exitY=0;exitDx=0;exitDy=0;" edge="1" parent="WIyWlLk6GJQsqaUBKTNV-1" source="R53OEbEXbrlHRiHu95DK-8" target="R53OEbEXbrlHRiHu95DK-1">
          <mxGeometry width="160" relative="1" as="geometry">
            <mxPoint x="-1240" y="320" as="sourcePoint" />
            <mxPoint x="-1080" y="320" as="targetPoint" />
          </mxGeometry>
        </mxCell>
        <mxCell id="m0jXe5smIOekXSRGqBHZ-7" value="" style="endArrow=block;endSize=16;endFill=0;html=1;rounded=0;exitX=0.5;exitY=0;exitDx=0;exitDy=0;entryX=0.5;entryY=1;entryDx=0;entryDy=0;" edge="1" parent="WIyWlLk6GJQsqaUBKTNV-1" source="m0jXe5smIOekXSRGqBHZ-0" target="m0jXe5smIOekXSRGqBHZ-1">
          <mxGeometry width="160" relative="1" as="geometry">
            <mxPoint x="-1200" y="220" as="sourcePoint" />
            <mxPoint x="-1040" y="220" as="targetPoint" />
            <mxPoint as="offset" />
          </mxGeometry>
        </mxCell>
        <mxCell id="m0jXe5smIOekXSRGqBHZ-8" value="" style="endArrow=diamondThin;endFill=0;endSize=24;html=1;rounded=0;entryX=0.5;entryY=1;entryDx=0;entryDy=0;exitX=0.5;exitY=0;exitDx=0;exitDy=0;" edge="1" parent="WIyWlLk6GJQsqaUBKTNV-1" source="m0jXe5smIOekXSRGqBHZ-2" target="m0jXe5smIOekXSRGqBHZ-0">
          <mxGeometry width="160" relative="1" as="geometry">
            <mxPoint x="-1280" y="300" as="sourcePoint" />
            <mxPoint x="-1120" y="300" as="targetPoint" />
          </mxGeometry>
        </mxCell>
        <mxCell id="m0jXe5smIOekXSRGqBHZ-9" value="" style="endArrow=diamondThin;endFill=0;endSize=24;html=1;rounded=0;entryX=1;entryY=0.5;entryDx=0;entryDy=0;exitX=0;exitY=0.5;exitDx=0;exitDy=0;" edge="1" parent="WIyWlLk6GJQsqaUBKTNV-1" source="m0jXe5smIOekXSRGqBHZ-2" target="R53OEbEXbrlHRiHu95DK-8">
          <mxGeometry width="160" relative="1" as="geometry">
            <mxPoint x="-1030" y="233" as="sourcePoint" />
            <mxPoint x="-1030" y="140" as="targetPoint" />
          </mxGeometry>
        </mxCell>
        <mxCell id="m0jXe5smIOekXSRGqBHZ-10" value="" style="endArrow=open;endFill=1;endSize=12;html=1;rounded=0;entryX=0;entryY=0.5;entryDx=0;entryDy=0;exitX=1;exitY=0.25;exitDx=0;exitDy=0;edgeStyle=elbowEdgeStyle;" edge="1" parent="WIyWlLk6GJQsqaUBKTNV-1" source="R53OEbEXbrlHRiHu95DK-1" target="m0jXe5smIOekXSRGqBHZ-0">
          <mxGeometry width="160" relative="1" as="geometry">
            <mxPoint x="-1280" y="300" as="sourcePoint" />
            <mxPoint x="-1120" y="300" as="targetPoint" />
          </mxGeometry>
        </mxCell>
        <mxCell id="m0jXe5smIOekXSRGqBHZ-11" value="" style="endArrow=open;endFill=1;endSize=12;html=1;rounded=0;entryX=0;entryY=0.5;entryDx=0;entryDy=0;exitX=1;exitY=0.25;exitDx=0;exitDy=0;edgeStyle=elbowEdgeStyle;" edge="1" parent="WIyWlLk6GJQsqaUBKTNV-1" source="R53OEbEXbrlHRiHu95DK-8" target="m0jXe5smIOekXSRGqBHZ-0">
          <mxGeometry width="160" relative="1" as="geometry">
            <mxPoint x="-1280" y="90" as="sourcePoint" />
            <mxPoint x="-1150" y="110" as="targetPoint" />
          </mxGeometry>
        </mxCell>
        <mxCell id="m0jXe5smIOekXSRGqBHZ-12" value="" style="endArrow=open;endFill=1;endSize=12;html=1;rounded=0;entryX=0.5;entryY=0;entryDx=0;entryDy=0;exitX=0.5;exitY=1;exitDx=0;exitDy=0;edgeStyle=elbowEdgeStyle;elbow=vertical;" edge="1" parent="WIyWlLk6GJQsqaUBKTNV-1" source="R53OEbEXbrlHRiHu95DK-8" target="m0jXe5smIOekXSRGqBHZ-5">
          <mxGeometry width="160" relative="1" as="geometry">
            <mxPoint x="-1280" y="310" as="sourcePoint" />
            <mxPoint x="-1120" y="310" as="targetPoint" />
          </mxGeometry>
        </mxCell>
        <mxCell id="m0jXe5smIOekXSRGqBHZ-13" value="" style="endArrow=open;endFill=1;endSize=12;html=1;rounded=0;entryX=0.5;entryY=1;entryDx=0;entryDy=0;exitX=0.5;exitY=0;exitDx=0;exitDy=0;" edge="1" parent="WIyWlLk6GJQsqaUBKTNV-1" source="m0jXe5smIOekXSRGqBHZ-4" target="m0jXe5smIOekXSRGqBHZ-3">
          <mxGeometry width="160" relative="1" as="geometry">
            <mxPoint x="-1280" y="310" as="sourcePoint" />
            <mxPoint x="-1120" y="310" as="targetPoint" />
          </mxGeometry>
        </mxCell>
        <mxCell id="m0jXe5smIOekXSRGqBHZ-14" value="" style="endArrow=open;endFill=1;endSize=12;html=1;rounded=0;exitX=0.25;exitY=0;exitDx=0;exitDy=0;entryX=1;entryY=0.75;entryDx=0;entryDy=0;edgeStyle=orthogonalEdgeStyle;" edge="1" parent="WIyWlLk6GJQsqaUBKTNV-1" source="m0jXe5smIOekXSRGqBHZ-4" target="R53OEbEXbrlHRiHu95DK-1">
          <mxGeometry width="160" relative="1" as="geometry">
            <mxPoint x="-1280" y="310" as="sourcePoint" />
            <mxPoint x="-1120" y="310" as="targetPoint" />
            <Array as="points">
              <mxPoint x="-1115" y="450" />
              <mxPoint x="-1200" y="450" />
              <mxPoint x="-1200" y="110" />
            </Array>
          </mxGeometry>
        </mxCell>
        <mxCell id="m0jXe5smIOekXSRGqBHZ-15" value="" style="endArrow=open;endFill=1;endSize=12;html=1;rounded=0;exitX=0.25;exitY=0;exitDx=0;exitDy=0;entryX=1;entryY=0.75;entryDx=0;entryDy=0;edgeStyle=orthogonalEdgeStyle;" edge="1" parent="WIyWlLk6GJQsqaUBKTNV-1" source="m0jXe5smIOekXSRGqBHZ-4" target="R53OEbEXbrlHRiHu95DK-8">
          <mxGeometry width="160" relative="1" as="geometry">
            <mxPoint x="-1280" y="310" as="sourcePoint" />
            <mxPoint x="-1120" y="310" as="targetPoint" />
            <Array as="points">
              <mxPoint x="-1115" y="450" />
              <mxPoint x="-1200" y="450" />
              <mxPoint x="-1200" y="315" />
            </Array>
          </mxGeometry>
        </mxCell>
      </root>
    </mxGraphModel>
  </diagram>
</mxfile>
